# xmcd
#
# Track frame offsets:
#	150
#	18855
#	35319
#	52067
#	68970
#	86962
#	108445
#	130736
#	155799
#
# Disc length: 2259 seconds
# Revision: 0
# Processed by: cddbd v1.5.2PL0 Copyright (c) Steve Scherf et al.
# Submitted via: dBpowerAMP V12.0
#
DISCID=7808d109
DTITLE=Podunk Nowhere - Based On A True Story
DYEAR=2008
DGENRE=Country
TTITLE0=Before You Go...
TTITLE1=Devious
TTITLE2=If I'm Drinkin
TTITLE3=Soul Spinning
TTITLE4=Something Worth Saving
TTITLE5=Given
TTITLE6=Tin Pan Alley
TTITLE7=Tangled
TTITLE8=Junkee Reprise
EXTD=
EXTT0=
EXTT1=
EXTT2=
EXTT3=
EXTT4=
EXTT5=
EXTT6=
EXTT7=
EXTT8=
PLAYORDER=
